PathFileType	4	(X/Y/Z)	C:/Users/opensim2020/Desktop/walking_exp_matlab/subject03_walking15_straight_03.trc																																																																																																																																											
DataRate	CameraRate	NumFrames	NumMarkers	Units	OrigDataRate	OrigDataStartFrame	OrigNumFrames																																																																																																																																							
100	100	5	47	mm	100	1577	220																																																																																																																																							
Frame#	Time	LFHD			RFHD			LBHD			RBHD			C7			T10			CLAV			STRN			RBAK			LSHO			LUPA			LELB			LFRM			LWRA			LWRB			LFIN			RSHO			RUPA			RELB			RFRM			RWRA			RWRB			RFIN			LASI			RASI			LPSI			RPSI			LTHI			LKNE			LTIB			LANK			LHEE			LTOE			RTHI			RKNE			RTIB			RANK			RHEE			RTOE			*39			*40			*41			*42			*43			*44			*45			*46		
		X1	Y1	Z1	X2	Y2	Z2	X3	Y3	Z3	X4	Y4	Z4	X5	Y5	Z5	X6	Y6	Z6	X7	Y7	Z7	X8	Y8	Z8	X9	Y9	Z9	X10	Y10	Z10	X11	Y11	Z11	X12	Y12	Z12	X13	Y13	Z13	X14	Y14	Z14	X15	Y15	Z15	X16	Y16	Z16	X17	Y17	Z17	X18	Y18	Z18	X19	Y19	Z19	X20	Y20	Z20	X21	Y21	Z21	X22	Y22	Z22	X23	Y23	Z23	X24	Y24	Z24	X25	Y25	Z25	X26	Y26	Z26	X27	Y27	Z27	X28	Y28	Z28	X29	Y29	Z29	X30	Y30	Z30	X31	Y31	Z31	X32	Y32	Z32	X33	Y33	Z33	X34	Y34	Z34	X35	Y35	Z35	X36	Y36	Z36	X37	Y37	Z37	X38	Y38	Z38	X39	Y39	Z39	X40	Y40	Z40	X41	Y41	Z41	X42	Y42	Z42	X43	Y43	Z43	X44	Y44	Z44	X45	Y45	Z45	X46	Y46	Z46	X47	Y47	Z47
																																																																																																																																														
1	0	-1256.11304	1609.74316	1365.86218	-1247.15466	1618.57727	1497.61096	-1381.04541	1561.02844	1380.41663	-1368.29468	1569.66162	1510.32703	-1401.80249	1409.39417	1443.52698	-1459.30701	1104.30347	1448.41956	-1280.25415	1328.59827	1432.13354	-1254.94849	1157.60315	1422.58337	-1451.64441	1239.98901	1547.32971	-1340.71155	1369.67468	1280.9126	-1375.57483	1177.67993	1202.91284	-1382.44604	1057.51147	1178.61633	-1373.00244	928.77386	1159.55615	-1366.45374	805.53577	1169.18506	-1398.13025	822.04614	1127.01563	-1393.32214	740.47296	1115.52649	-1311.90967	1354.69678	1594.26904	-1277.50049	1146.94238	1686.23779	-1235.93494	1045.28247	1710.34912	-1177.66296	921.6839	1719.93506	-1121.40161	838.51215	1686.86548	-1146.72632	827.1377	1733.37378	-1100.66089	769.47833	1727.53369	-1327.02563	934.02228	1319.55066	-1315.29749	917.64612	1552.12268	-1483.55078	970.59827	1373.07483	-1469.88428	976.2168	1523.04651	-1320.42102	647.64502	1263.74109	-1260.62219	480.93906	1298.15088	-1309.63721	286.20001	1307.76685	-1327.09167	79.38239	1357.48938	-1366.37439	46.81679	1400.51135	-1180.62683	47.59611	1371.55078	-1443.31995	643.59955	1603.05969	-1476.78455	466.46671	1574.04956	-1562.48608	295.83282	1590.66028	-1624.35645	81.08671	1554.35217	-1672.95789	50.73565	1508.30859	-1487.32202	37.07016	1528.30554	NaN	NaN	NaN	NaN	NaN	NaN	NaN	NaN	NaN	NaN	NaN	NaN	NaN	NaN	NaN	NaN	NaN	NaN	NaN	NaN	NaN	NaN	NaN	NaN
2	0.01	-1250.50574	1608.88684	1367.12231	-1241.18604	1617.45044	1498.82104	-1374.97412	1559.4469	1381.78345	-1362.07458	1567.87659	1511.66992	-1395.02466	1408.29285	1444.9585	-1453.33936	1103.38123	1449.71606	-1273.28186	1327.22131	1433.15784	-1248.85571	1156.12085	1423.3877	-1444.8551	1239.01379	1548.89429	-1334.67053	1368.64917	1282.03931	-1372.54163	1177.41968	1203.00952	-1381.29639	1057.67102	1177.80591	-1374.53455	929.08704	1157.30469	-1370.20007	805.59106	1165.45789	-1402.40918	823.28619	1124.00867	-1400.36621	741.53351	1111.72632	-1304.18823	1353.1416	1595.26636	-1269.71704	1145.21362	1686.48389	-1228.39587	1043.27979	1709.80725	-1169.86975	919.80078	1718.07739	-1113.80078	836.92603	1683.65991	-1138.54114	825.23706	1730.44885	-1092.51685	767.72815	1723.6145	-1321.89441	933.07654	1320.65833	-1309.56372	916.58118	1553.12793	-1478.44031	969.31409	1374.42102	-1464.30591	974.95178	1524.33264	-1314.56653	646.7262	1263.96399	-1253.45178	480.45471	1299.02783	-1298.17041	285.04761	1308.46997	-1310.89539	78.04952	1357.91626	-1349.1366	44.50986	1400.93921	-1163.5835	47.94475	1371.198	-1437.93494	642.87604	1604.70667	-1472.69666	465.95737	1575.11353	-1559.83008	295.93719	1591.6095	-1623.60754	81.67886	1555.13428	-1672.89233	52.14212	1509.34766	-1487.07593	36.88648	1528.41187	NaN	NaN	NaN	NaN	NaN	NaN	NaN	NaN	NaN	NaN	NaN	NaN	NaN	NaN	NaN	NaN	NaN	NaN	NaN	NaN	NaN	NaN	NaN	NaN
3	0.02	-1244.5199	1607.93127	1368.23376	-1235.1012	1616.38647	1500.01514	-1368.80811	1557.79858	1383.00903	-1355.64709	1566.14966	1512.92322	-1388.03943	1407.11011	1446.21704	-1447.29028	1102.48035	1450.89209	-1266.25879	1325.80969	1434.0625	-1241.87524	1155.10571	1424.01929	-1437.91431	1238.03296	1550.21851	-1328.32288	1367.61377	1282.95459	-1369.7478	1177.36169	1202.93921	-1380.14282	1057.89587	1176.90527	-1375.83911	929.50684	1155.25708	-1373.73706	805.67639	1162.20703	-1406.052	824.51068	1121.35437	-1406.57153	742.59747	1108.7467	-1296.57373	1351.69104	1596.17078	-1262.19214	1143.50171	1686.5708	-1220.9231	1041.20105	1709.06592	-1162.20349	917.76764	1716.08667	-1106.48279	835.24835	1680.35645	-1130.56604	823.19635	1727.37561	-1084.60242	765.52008	1719.12878	-1316.59033	931.97119	1321.61316	-1303.68347	915.55493	1554.13428	-1473.1554	967.93646	1375.79358	-1458.47583	973.60199	1525.66895	-1308.90759	645.57092	1264.39111	-1246.26465	480.19922	1299.99036	-1286.76489	284.05463	1309.36316	-1294.47583	76.48248	1358.36194	-1330.64575	39.97249	1399.00073	-1146.49939	48.44032	1370.2832	-1432.32837	642.15503	1606.14502	-1468.41199	465.5274	1576.11401	-1557.11731	296.07907	1592.48315	-1623.04492	82.64771	1555.84192	-1672.53833	53.42112	1509.99243	-1486.70691	36.49779	1528.3374	NaN	NaN	NaN	NaN	NaN	NaN	NaN	NaN	NaN	NaN	NaN	NaN	NaN	NaN	NaN	NaN	NaN	NaN	NaN	NaN	NaN	NaN	NaN	NaN
4	0.03	-1238.39429	1606.92163	1369.16467	-1228.81946	1615.3407	1500.93909	-1362.46692	1556.18311	1384.08398	-1349.05737	1564.38074	1513.95447	-1380.84973	1405.9989	1447.33032	-1441.09326	1101.58813	1451.87012	-1258.90344	1324.40161	1434.69556	-1236.52686	1152.95862	1424.65808	-1430.93481	1237.11108	1551.3197	-1321.81238	1366.50085	1283.74329	-1365.51746	1177.17822	1203.18518	-1378.8623	1058.22949	1175.95703	-1376.90161	930.01074	1153.35693	-1376.52673	806.02704	1159.45459	-1409.15637	825.7113	1119.08337	-1412.01416	743.64856	1106.39063	-1288.78345	1350.24731	1596.87427	-1254.67126	1141.77466	1686.45959	-1213.66614	1039.13562	1708.24512	-1154.8645	915.74689	1714.02429	-1099.46985	833.59705	1677.04626	-1122.8783	821.17651	1724.16846	-1077.26868	763.59302	1714.96606	-1311.12292	931.05127	1322.45679	-1297.54871	914.54413	1554.90466	-1467.79968	966.48877	1377.06763	-1452.57703	972.23279	1526.85144	-1302.48059	644.22235	1264.05981	-1238.86072	479.82498	1300.81592	-1275.44995	283.17126	1310.21228	-1278.50696	75.44877	1358.92932	-1314.87927	40.41892	1402.24854	-1129.88208	49.13106	1369.66431	-1426.672	641.50818	1607.3291	-1463.97437	465.0968	1577.04907	-1554.3562	296.29169	1593.26526	-1622.22266	83.34535	1556.28101	-1672.17371	54.89926	1510.61865	-1486.34192	36.37512	1528.52686	NaN	NaN	NaN	NaN	NaN	NaN	NaN	NaN	NaN	NaN	NaN	NaN	NaN	NaN	NaN	NaN	NaN	NaN	NaN	NaN	NaN	NaN	NaN	NaN
5	0.04	-1231.95508	1606.02283	1370.03638	-1222.28198	1614.28625	1501.70959	-1355.70667	1554.51648	1385.02051	-1342.27344	1562.74438	1514.90601	-1373.45374	1404.91931	1448.30127	-1434.68542	1100.8053	1452.81799	-1255.53613	1322.36365	1434.48828	-1229.78198	1151.47949	1424.96252	-1423.72156	1236.172	1552.25366	-1315.06616	1365.43262	1284.38892	-1362.23352	1177.27454	1202.90381	-1377.33313	1058.63135	1175.03674	-1377.37854	930.552	1151.73853	-1378.92188	806.49615	1157.14294	-1411.70349	826.88226	1117.1499	-1416.66565	744.66711	1104.66553	-1280.80432	1348.76331	1597.45081	-1247.17261	1139.96643	1686.23596	-1206.4353	1037.01929	1707.35681	-1147.66553	913.64258	1711.93689	-1092.81982	831.98987	1673.96204	-1115.45691	819.01135	1720.95715	-1070.07275	761.32959	1710.64636	-1305.3291	930.2724	1323.05383	-1291.25488	913.47565	1555.55017	-1462.21472	965.04248	1378.36389	-1446.46313	970.78461	1528.07947	-1296.65295	642.84442	1263.72314	-1231.24866	479.69086	1301.93298	-1264.24146	282.59024	1311.20605	-1262.80688	74.74355	1359.56726	-1298.30078	39.16161	1403.11047	-1113.96191	49.79313	1369.5448	-1420.60144	640.73267	1608.24988	-1459.29016	464.63635	1577.98059	-1551.4187	296.5365	1594.05017	-1621.65662	84.46227	1556.96277	-1671.91687	56.5632	1511.36255	-1485.97815	36.2385	1528.61926	NaN	NaN	NaN	NaN	NaN	NaN	NaN	NaN	NaN	NaN	NaN	NaN	NaN	NaN	NaN	NaN	NaN	NaN	NaN	NaN	NaN	NaN	NaN	NaN
